<svg xmlns="http://www.w3.org/2000/svg" width="1100" height="1065" viewBox="0 0 1100 1065"><style>text{font-family:Arial, Helvetica, sans-serif;fill:#111}.title{font-size:20px;font-weight:700}.label{font-size:13px;font-weight:400}.small{font-size:11px;font-weight:400}.boxTitle{font-size:13px;font-weight:700}.attr{font-size:10.5px;font-weight:400}</style><rect width="100%" height="100%" fill="white"/><text x="550.0" y="35" text-anchor="middle" class="title">Diagrama de casos de uso - Gestão escolar</text><rect x="260" y="70" width="760" height="925" fill="none" stroke="#111" stroke-width="1.2"/><text x="280" y="98" class="label">Safe Student - MVP acadêmico</text><circle cx="120" cy="360" r="11" fill="white" stroke="#111" stroke-width="1.2"/><line x1="120" y1="371" x2="120" y2="407" stroke="#111" stroke-width="1.2"/><line x1="100" y1="386" x2="140" y2="386" stroke="#111" stroke-width="1.2"/><line x1="120" y1="407" x2="102" y2="433" stroke="#111" stroke-width="1.2"/><line x1="120" y1="407" x2="138" y2="433" stroke="#111" stroke-width="1.2"/><text x="120" y="454" text-anchor="middle" class="label">Gestão escolar</text><ellipse cx="650" cy="145" rx="220" ry="34" fill="white" stroke="#111" stroke-width="1.2"/><text x="650" y="150" text-anchor="middle" class="label">Autenticar-se</text><line x1="150" y1="385" x2="430" y2="145" stroke="#222" stroke-width="1"/><ellipse cx="650" cy="235" rx="220" ry="34" fill="white" stroke="#111" stroke-width="1.2"/><text x="650" y="240" text-anchor="middle" class="label">Cadastrar aluno</text><line x1="150" y1="385" x2="430" y2="235" stroke="#222" stroke-width="1"/><ellipse cx="650" cy="325" rx="220" ry="34" fill="white" stroke="#111" stroke-width="1.2"/><text x="650" y="330" text-anchor="middle" class="label">Vincular responsável ao aluno</text><line x1="150" y1="385" x2="430" y2="325" stroke="#222" stroke-width="1"/><ellipse cx="650" cy="415" rx="220" ry="34" fill="white" stroke="#111" stroke-width="1.2"/><text x="650" y="420" text-anchor="middle" class="label">Registrar entrada</text><line x1="150" y1="385" x2="430" y2="415" stroke="#222" stroke-width="1"/><ellipse cx="650" cy="505" rx="220" ry="34" fill="white" stroke="#111" stroke-width="1.2"/><text x="650" y="510" text-anchor="middle" class="label">Registrar saída</text><line x1="150" y1="385" x2="430" y2="505" stroke="#222" stroke-width="1"/><ellipse cx="650" cy="595" rx="220" ry="34" fill="white" stroke="#111" stroke-width="1.2"/><text x="650" y="600" text-anchor="middle" class="label">Gerar e exportar relatório</text><line x1="150" y1="385" x2="430" y2="595" stroke="#222" stroke-width="1"/><ellipse cx="650" cy="685" rx="220" ry="34" fill="white" stroke="#111" stroke-width="1.2"/><text x="650" y="690" text-anchor="middle" class="label">Consultar auditoria</text><line x1="150" y1="385" x2="430" y2="685" stroke="#222" stroke-width="1"/><ellipse cx="650" cy="775" rx="220" ry="34" fill="white" stroke="#111" stroke-width="1.2"/><text x="650" y="780" text-anchor="middle" class="label">Enviar mensagem autorizada</text><line x1="150" y1="385" x2="430" y2="775" stroke="#222" stroke-width="1"/><ellipse cx="650" cy="865" rx="220" ry="34" fill="white" stroke="#111" stroke-width="1.2"/><text x="650" y="870" text-anchor="middle" class="label">Exportar validação</text><line x1="150" y1="385" x2="430" y2="865" stroke="#222" stroke-width="1"/><ellipse cx="650" cy="955" rx="220" ry="34" fill="white" stroke="#111" stroke-width="1.2"/><text x="650" y="960" text-anchor="middle" class="label">Restaurar demonstração</text><line x1="150" y1="385" x2="430" y2="955" stroke="#222" stroke-width="1"/><text x="550" y="1040" text-anchor="middle" class="small">Cada elipse representa um objetivo observável; operações distintas não foram fundidas em um único caso de uso.</text></svg>